<?xml version="1.0" encoding="utf-8"?>
<!-- Generator: Adobe Illustrator 25.1.0, SVG Export Plug-In . SVG Version: 6.00 Build 0)  -->
<svg version="1.1" id="Layer_1" xmlns="http://www.w3.org/2000/svg" xmlns:xlink="http://www.w3.org/1999/xlink" x="0px" y="0px"
	 viewBox="0 0 150 150" style="enable-background:new 0 0 150 150;" xml:space="preserve">
<g>
	<path fill="#2479ba" d="M134.42,81.73c-0.68,1.59-1.87,2.17-3.59,2.12c-2.89-0.09-5.8-0.01-8.7-0.03c-0.72-0.01-1.06,0.12-1.23,0.95
		c-3.95,21.11-21.73,34.91-39.34,37.62c-13.76,2.12-25.84-1.97-36.47-10.59c-2.76-2.25-5.08-5.06-7.52-7.7
		c-0.91-0.99-0.9-2.22-0.28-3.23c0.6-0.97,1.8-1.6,2.89-1.2c0.77,0.28,1.53,0.89,2.06,1.55c4.2,5.15,9.29,9.17,15.27,12.03
		c13.55,6.48,26.7,5.38,39.28-2.52c9.59-6.01,15.87-14.54,18.44-25.66c0.09-0.37,0.13-0.75,0.22-1.24c-2.86,0-5.63-0.03-8.42,0.01
		c-1.33,0.02-2.46-0.26-3.15-1.51c-0.7-1.27-0.23-2.36,0.53-3.44c4.04-5.85,8.08-11.71,12.12-17.56c1.37-1.97,3.51-2,4.86-0.03
		c4.15,6.01,8.27,12.04,12.4,18.08c0.22,0.31,0.4,0.65,0.6,0.98C134.42,80.8,134.42,81.27,134.42,81.73z M126.41,78.22
		c-2.52-3.65-4.94-7.15-7.41-10.73c-2.51,3.63-4.9,7.12-7.4,10.73C116.58,78.22,121.36,78.22,126.41,78.22z"/>
	<path fill="#2479ba" d="M34.53,66.19c3.08,0,6.04-0.02,9.02,0.01c1.86,0.02,3.14,1.41,2.87,3.14c-0.08,0.51-0.34,1.03-0.63,1.46
		c-4.09,5.97-8.18,11.92-12.3,17.86c-1.37,1.97-3.49,1.98-4.86,0.01c-4.14-5.97-8.26-11.97-12.4-17.94
		c-0.68-0.98-0.88-1.98-0.32-3.04c0.58-1.11,1.56-1.53,2.79-1.52c3.05,0.02,6.11-0.02,9.16,0.02c0.83,0.01,1.09-0.24,1.25-1.05
		c3.94-20.79,21.44-34.71,39.2-37.5c14.44-2.26,26.94,2.25,37.83,11.59c2.33,2,4.29,4.44,6.36,6.74c0.82,0.91,0.85,2.05,0.23,3.14
		c-0.57,0.99-1.79,1.59-2.88,1.23c-0.72-0.24-1.44-0.76-1.92-1.37c-3.79-4.71-8.36-8.46-13.66-11.33
		c-15.96-8.64-32.58-5.8-45.83,5.1c-7.07,5.81-11.66,13.23-13.67,22.18C34.67,65.32,34.61,65.69,34.53,66.19z M23.61,71.77
		c2.52,3.65,4.93,7.14,7.41,10.74c2.48-3.59,4.89-7.1,7.41-10.74C33.42,71.77,28.64,71.77,23.61,71.77z"/>
	<path fill="#2479ba" d="M76.2,71.97c-1.14,0-2.13,0-3.12,0c-2.74,0-5.5,0.01-8.24,0c-1.94-0.01-3.22-1.09-3.24-2.72c-0.03-1.67,1.27-2.8,3.28-2.8
		c3.29-0.01,6.57,0,9.86,0c0.42,0,0.84,0,1.28,0c-0.59-1.92-2.73-3.45-5.01-3.52c-2.04-0.06-4.1-0.02-6.15-0.03
		c-2-0.01-3.31-1.14-3.27-2.82c0.03-1.63,1.3-2.71,3.25-2.72c6.81-0.01,13.61-0.01,20.42,0c2.34,0,3.77,1.87,2.94,3.81
		c-0.52,1.2-1.51,1.71-2.77,1.72c-1.58,0.01-3.15,0-4.82,0c0.52,1.23,0.98,2.34,1.49,3.56c1,0,2.04-0.01,3.09,0
		c1.94,0.02,3.22,1.11,3.23,2.74s-1.28,2.76-3.18,2.77c-1.04,0.01-2.09,0-3.14,0c-1.62,5.29-5.12,8.36-10.56,9.15
		c-0.14,0.13-0.27,0.27-0.41,0.4c0.38,0.18,0.84,0.3,1.13,0.57c3.05,2.85,6.08,5.73,9.11,8.6c0.84,0.8,1.27,1.74,0.9,2.92
		c-0.32,1.05-1.05,1.83-2.12,1.87c-0.77,0.03-1.79-0.17-2.32-0.67c-5.14-4.75-10.21-9.59-15.27-14.41c-0.9-0.85-1.16-1.94-0.72-3.09
		c0.46-1.2,1.45-1.77,2.73-1.79c2.16-0.03,4.33,0.04,6.5-0.08C73.35,75.34,75.02,74.16,76.2,71.97z"/>
</g>
</svg>
